<svg width="154" height="154" viewBox="0 0 154 154" fill="none" xmlns="http://www.w3.org/2000/svg">
<rect width="154" height="154" fill="#1A1D1F"/>
<path fill-rule="evenodd" clip-rule="evenodd" d="M74.3903 33C44.7257 33 29.382 33.5115 28.359 64.199C25.8018 110.742 37.3096 128.899 50.0961 108.44L55.2106 100.001C59.0466 94.1196 64.417 94.8868 67.7414 100.001L75.4133 112.532C82.0623 122.506 89.2228 117.647 85.3867 112.532L80.2721 103.07C76.9477 94.3753 80.2721 94.631 86.6654 103.07L94.593 114.322C100.219 122.761 109.937 120.971 105.589 114.322L93.0586 97.4439C89.2228 90.5393 94.593 91.3064 100.219 97.4439L113.261 112.532C122.979 120.46 129.884 115.089 123.746 108.44L106.357 91.3064C102.674 87.0199 102.603 84.7745 106.357 81.0772C122.979 67.2679 118.632 33.5115 90.757 33.5115L74.3903 33ZM55.9776 42.7179C32.9621 42.7179 35.008 87.2149 55.9776 86.4477C74.9019 86.4477 78.9936 46.0423 58.2792 42.7179H55.9776ZM95.0026 76.978C78.5604 77.579 76.9562 42.7179 95.0026 42.7179H96.8072C113.049 45.3224 109.841 76.978 95.0026 76.978ZM80.2725 77.7529C77.715 77.7529 73.9918 82.4426 74.1347 85.2679C74.3097 86.3863 74.7122 87.1841 76.4363 86.8754C77.3104 86.7189 78.5244 86.1243 80.2207 85.2933L80.2207 85.2933L80.2725 85.2679C81.8528 85.9382 83.1199 86.4258 84.1082 86.4985C89.4785 86.9591 84.8754 77.7529 80.2725 77.7529Z" fill="white"/>
</svg>
